<svg xmlns="http://www.w3.org/2000/svg" viewBox="0 0 100 100" width="100" height="100">
  <defs>
    <linearGradient id="leafGradient" x1="0%" y1="0%" x2="100%" y2="100%">
      <stop offset="0%" style="stop-color:#22c55e;stop-opacity:1" />
      <stop offset="100%" style="stop-color:#16a34a;stop-opacity:1" />
    </linearGradient>
  </defs>
  
  <!-- Background circle -->
  <circle cx="50" cy="50" r="48" fill="#ffffff" stroke="#22c55e" stroke-width="2"/>
  
  <!-- Leaf shape -->
  <path d="M50 15 C 35 15, 25 30, 25 45 C 25 65, 40 80, 50 85 C 60 80, 75 65, 75 45 C 75 30, 65 15, 50 15 Z" 
        fill="url(#leafGradient)" stroke="#16a34a" stroke-width="1"/>
  
  <!-- Leaf vein -->
  <path d="M50 20 L50 80" stroke="#ffffff" stroke-width="2" opacity="0.8"/>
  <path d="M50 35 Q 40 30, 35 25" stroke="#ffffff" stroke-width="1" opacity="0.6"/>
  <path d="M50 45 Q 40 45, 35 40" stroke="#ffffff" stroke-width="1" opacity="0.6"/>
  <path d="M50 55 Q 60 55, 65 60" stroke="#ffffff" stroke-width="1" opacity="0.6"/>
  <path d="M50 65 Q 60 70, 65 75" stroke="#ffffff" stroke-width="1" opacity="0.6"/>
</svg>